<svg id="Calque_1" data-name="Calque 1" xmlns="http://www.w3.org/2000/svg" viewBox="0 0 244.95 244.95"><defs><style>.cls-1{fill:#ff8080;}.cls-2{fill:#ffe680;}.cls-3{fill:#80b3ff;}.cls-4{fill:#8dd35f;}</style></defs><title>Sans titre - 1</title><path class="cls-1" d="M196.85,155.81v13.73a18.16,18.16,0,0,0,10.52-5.13l2.88-2.88-8-8A20.53,20.53,0,0,1,196.85,155.81Z" transform="translate(-69.05 -66.05)"/><path class="cls-1" d="M181.43,164.41a17.9,17.9,0,0,0,4.77,3.34V155.81a21.06,21.06,0,0,1-13-31.29L148.62,99.9l-15.86,15.85Z" transform="translate(-69.05 -66.05)"/><path class="cls-1" d="M206.59,120.22A21.22,21.22,0,0,1,209.81,146l8,8,35.38-35.38L207,72.48a21.88,21.88,0,0,0-31,0L156.15,92.37l24.6,24.6A21.28,21.28,0,0,1,206.59,120.22Z" transform="translate(-69.05 -66.05)"/><path class="cls-2" d="M207.37,203.7a18.16,18.16,0,0,0-10.52-5.13v22.66a21.3,21.3,0,1,1-10.65,0V200.36a18.13,18.13,0,0,0-4.77,3.34l-53.14,53.13L176,304.57a21.88,21.88,0,0,0,31,0L257.63,254Z" transform="translate(-69.05 -66.05)"/><path class="cls-3" d="M174.73,171.06l-48.64-48.64L75.48,173a21.89,21.89,0,0,0,0,31l46.11,46.11L174.73,197A18.35,18.35,0,0,0,174.73,171.06Z" transform="translate(-69.05 -66.05)"/><path class="cls-4" d="M259.81,125.27l-35.38,35.38,9.57,9.57a21.3,21.3,0,1,1-7.53,7.53l-9.57-9.57L214,171.06A18.33,18.33,0,0,0,214,197l50.28,50.28L307.57,204a21.89,21.89,0,0,0,0-31Z" transform="translate(-69.05 -66.05)"/></svg>